<svg width="107" height="107" xmlns="http://www.w3.org/2000/svg" xmlns:xlink="http://www.w3.org/1999/xlink" xmlns:svgjs="http://svgjs.com/svgjs" viewBox="664 4577 107 107"><svg width="107" height="107" xmlns="http://www.w3.org/2000/svg" xmlns:xlink="http://www.w3.org/1999/xlink" xmlns:svgjs="http://svgjs.com/svgjs" fill="#fff" opacity=".302" x="664" y="4577"><svg xmlns="http://www.w3.org/2000/svg" xmlns:xlink="http://www.w3.org/1999/xlink" width="107" height="107" viewBox="2 2 106 106"><path paint-order="stroke fill markers" fill-rule="evenodd" d="M55 2c29.271 0 53 23.729 53 53s-23.729 53-53 53S2 84.27 2 55 25.729 2 55 2z"/></svg></svg><svg width="71" height="71" xmlns="http://www.w3.org/2000/svg" xmlns:xlink="http://www.w3.org/1999/xlink" xmlns:svgjs="http://svgjs.com/svgjs" fill="#fff" opacity=".8" x="682" y="4595"><svg xmlns="http://www.w3.org/2000/svg" xmlns:xlink="http://www.w3.org/1999/xlink" width="71" height="71" viewBox="2 2 70 70"><path paint-order="stroke fill markers" fill-rule="evenodd" d="M37 2c19.33 0 35 15.67 35 35S56.33 72 37 72 2 56.33 2 37 17.67 2 37 2z"/></svg></svg><svg width="17" height="17" xmlns="http://www.w3.org/2000/svg" xmlns:xlink="http://www.w3.org/1999/xlink" xmlns:svgjs="http://svgjs.com/svgjs" fill="#7e5aff" x="709" y="4622"><svg xmlns="http://www.w3.org/2000/svg" width="17" height="17" viewBox="2 2 16 16"><path paint-order="stroke fill markers" fill-rule="evenodd" d="M10 2a8 8 0 1 1 0 16 8 8 0 0 1 0-16z"/></svg></svg></svg>